<svg width="477" height="507" viewBox="0 0 477 507" fill="none" xmlns="http://www.w3.org/2000/svg">
<g style="mix-blend-mode:multiply">
<path d="M155.199 84.7746C-43.5807 0.904023 -196.452 104.375 -248.041 166.594L-323.971 537.959L308.183 667.21C399.342 601.554 411.605 457.086 413.823 425.119C416.04 393.151 403.674 189.613 155.199 84.7746Z" fill="#EBF2FB"/>
</g>
<g style="mix-blend-mode:multiply">
<path d="M23.5456 178.958C-117.302 129.421 -219.865 213.391 -264.999 249.532L-324.782 541.928L152.995 639.615C189.733 606.078 239.096 494.353 235.228 420.972C230.392 329.246 199.605 240.881 23.5456 178.958Z" fill="#DCE9FB"/>
</g>
<g style="mix-blend-mode:multiply">
<path d="M15.4378 272.589C-110.187 203.808 -234.248 288.336 -280.575 339.197L-321.595 539.823L81.8948 622.321C127.417 631.629 160.119 576.213 137.551 487.176C120.846 421.272 172.469 358.565 15.4378 272.589Z" fill="#CFE1FB"/>
</g>
</svg>
