<svg width="1092" height="1080" viewBox="0 0 1092 1080" fill="none" xmlns="http://www.w3.org/2000/svg">
<g style="mix-blend-mode:multiply">
<path d="M859.063 481.213C933.797 173.306 720.935 -5.05451 605.163 -55.7467L-15.5299 -33.0232L-31.945 898.347C101.352 1003.33 337.577 970.266 389.698 962.255C441.819 954.243 765.647 866.095 859.063 481.213Z" fill="#EBF2FB"/>
</g>
<path d="M667.58 329.373C704.616 114.643 538.387 0.0413796 466.542 -50.672L-22.1628 -32.7805L-34.5692 671.142C30.5398 710.989 225.312 741.338 342.24 710.386C488.399 671.695 621.284 597.786 667.58 329.373Z" fill="#DDEBFA"/>
<path d="M514.433 350.577C587.053 150.497 413.411 5.94553 317.513 -41.3205L-17.8095 -29.0444L-28.2869 565.429C-29.469 632.498 69.6295 659.074 206.086 596.455C307.089 550.104 423.658 600.676 514.433 350.577Z" fill="#D0E3F9"/>
</svg>
