<svg width="388" height="389" viewBox="0 0 388 389" fill="none" xmlns="http://www.w3.org/2000/svg">
<g style="mix-blend-mode:multiply">
<path d="M79.1388 231.034C44.0293 346.433 121.047 418.858 163.945 440.646L400.347 445.527L426.869 91.8982C378.493 49.0949 287.991 56.5162 268.007 58.4261C248.023 60.3359 123.026 86.786 79.1388 231.034Z" fill="#EBF2FB"/>
</g>
<path d="M148.609 292.914C129.857 373.72 190.54 420.897 216.741 441.736L402.873 445.58L422.919 178.309C399.041 161.747 325.674 145.97 280.559 155.188C224.166 166.71 172.051 191.907 148.609 292.914Z" fill="#DDEBFA"/>
<path d="M207.278 288.19C175.32 362.653 238.168 421.375 273.587 441.428L401.3 444.065L418.229 218.351C420.139 192.886 383.053 180.627 329.826 201.455C290.429 216.871 247.226 195.112 207.278 288.19Z" fill="#D0E3F9"/>
</svg>
